<?xml version="1.0" encoding="utf-8"?>
<!-- Generator: Adobe Illustrator 19.2.1, SVG Export Plug-In . SVG Version: 6.00 Build 0)  -->
<svg version="1.1" id="Layer_1" xmlns="http://www.w3.org/2000/svg" xmlns:xlink="http://www.w3.org/1999/xlink" x="0px" y="0px"
	 viewBox="0 0 15 18" style="enable-background:new 0 0 15 18;" xml:space="preserve">
<path d="M13,10.4c-0.2-0.2-0.7-0.4-1.5-0.4c-0.5,0-1.2,0-1.8,0.1C9.4,9.9,9.1,9.8,8.9,9.5C8.2,8.9,7.7,8,7.4,7c0-0.1,0-0.2,0.1-0.2
	c0,0,0.4-2.2,0.3-2.9c0-0.1,0-0.1,0-0.2l0-0.1C7.5,3.4,7.3,3.1,7,3.1l-0.2,0l0,0c-0.3,0-0.6,0.2-0.7,0.5c-0.2,0.9,0,2.1,0.4,3.8
	L6.4,7.6c-0.3,0.8-0.7,1.5-1,2.2l0,0.1c-0.3,0.7-0.7,1.3-0.9,1.8l-0.3,0.2c0,0-0.5,0.3-0.6,0.4c-1,0.6-1.6,1.3-1.8,1.9
	c0,0.2,0,0.4,0.2,0.5l0.3,0.1c0.1,0.1,0.3,0.1,0.4,0.1c0.7,0,1.5-0.9,2.7-3c1.3-0.4,2.8-0.8,4.1-1c1,0.6,2.2,1,3,1
	c0.1,0,0.3,0,0.4,0c0.1,0,0.3-0.1,0.3-0.2c0.1-0.2,0.2-0.6,0.1-0.9C13.2,10.6,13.1,10.4,13,10.4z M2.5,14.3c0.1-0.4,0.6-1.1,1.4-1.7
	c0,0,0.2-0.2,0.3-0.3C3.3,13.6,2.8,14.1,2.5,14.3z M6.9,3.5c0.2,0,0.4,0.6,0.4,1.2c0,0.6-0.1,1-0.3,1.3C6.9,5.5,6.8,4.8,6.8,4.4
	C6.8,4.4,6.8,3.5,6.9,3.5z M5.6,11.2c0.2-0.3,0.3-0.6,0.5-0.9c0.4-0.8,0.7-1.5,0.9-2C7.3,9,7.8,9.6,8.4,10.1
	c0.1,0.1,0.1,0.1,0.2,0.2C7.5,10.6,6.5,10.9,5.6,11.2z M12.8,11.1c-0.1,0-0.3,0.1-0.4,0.1c-0.4,0-0.9-0.2-1.6-0.5c0.3,0,0.5,0,0.8,0
	c0.4,0,0.5,0,0.9,0.1C12.9,10.9,12.9,11.1,12.8,11.1z M14.1,3.5L11.7,1c-0.5-0.5-1.5-1-2.3-1h-8C0.6,0,0,0.6,0,1.4v15.2
	C0,17.4,0.6,18,1.3,18h12.3c0.7,0,1.3-0.6,1.3-1.4V5.9C15,5.1,14.6,4.1,14.1,3.5z M13.3,4.3c0.1,0.1,0.1,0.1,0.2,0.2h-2.7V1.6
	c0.1,0.1,0.1,0.1,0.2,0.2L13.3,4.3z M13.9,16.6c0,0.2-0.1,0.3-0.3,0.3H1.3c-0.1,0-0.3-0.1-0.3-0.3V1.4c0-0.2,0.1-0.3,0.3-0.3h8
	c0.1,0,0.2,0,0.3,0v4.5h4.3c0,0.1,0,0.2,0,0.3V16.6z"/>
</svg>
